<svg width="519" height="179" viewBox="0 0 519 179" fill="none" xmlns="http://www.w3.org/2000/svg">
<g clip-path="url(#clip0_18_2479)">
<rect width="519" height="179" fill="white"/>
<path d="M235.129 91.5C238.365 91.5 240.698 90.7032 242.127 89.1097C243.598 87.4742 244.334 85.3774 244.334 82.8194C244.334 80.1774 243.598 78.1016 242.127 76.5919C240.698 75.0823 238.365 74.3274 235.129 74.3274C231.892 74.3274 229.538 75.0823 228.067 76.5919C226.638 78.1016 225.923 80.1774 225.923 82.8194C225.923 84.0774 226.092 85.2306 226.428 86.279C226.806 87.3274 227.374 88.25 228.13 89.0468C228.887 89.8016 229.833 90.4097 230.967 90.871C232.144 91.2903 233.531 91.5 235.129 91.5ZM250.26 129.934C250.26 128.382 249.567 127.271 248.18 126.6C246.793 125.887 244.985 125.384 242.758 125.09C240.53 124.797 238.029 124.629 235.255 124.587C232.523 124.503 229.79 124.335 227.058 124.084C225.839 124.923 224.831 125.866 224.032 126.915C223.275 127.921 222.897 129.074 222.897 130.374C222.897 131.297 223.086 132.135 223.465 132.89C223.885 133.645 224.599 134.295 225.608 134.84C226.617 135.385 227.962 135.805 229.643 136.098C231.367 136.434 233.531 136.602 236.137 136.602C238.954 136.602 241.265 136.434 243.073 136.098C244.88 135.763 246.309 135.302 247.36 134.715C248.453 134.127 249.21 133.415 249.63 132.576C250.05 131.779 250.26 130.898 250.26 129.934ZM269.553 64.3258V71.4339C269.553 72.5242 269.238 73.3839 268.608 74.0129C268.019 74.6419 266.989 75.1242 265.518 75.4597L260.79 76.529C261.042 77.4516 261.231 78.3952 261.357 79.3597C261.525 80.3242 261.609 81.3306 261.609 82.379C261.609 85.65 260.916 88.5855 259.529 91.1855C258.184 93.7855 256.313 96.0081 253.917 97.8532C251.563 99.6564 248.768 101.061 245.532 102.068C242.295 103.032 238.828 103.515 235.129 103.515C234.12 103.515 233.132 103.494 232.165 103.452C231.199 103.368 230.253 103.242 229.328 103.074C227.899 103.955 227.184 104.94 227.184 106.031C227.184 107.121 227.773 107.918 228.95 108.421C230.127 108.882 231.682 109.218 233.615 109.427C235.549 109.595 237.735 109.721 240.173 109.805C242.653 109.847 245.174 109.994 247.738 110.245C250.302 110.455 252.803 110.832 255.241 111.377C257.721 111.923 259.928 112.803 261.861 114.019C263.795 115.235 265.35 116.871 266.527 118.926C267.704 120.939 268.292 123.518 268.292 126.663C268.292 129.598 267.578 132.471 266.149 135.281C264.72 138.09 262.618 140.585 259.844 142.766C257.07 144.947 253.665 146.687 249.63 147.987C245.595 149.329 240.971 150 235.759 150C230.631 150 226.197 149.518 222.456 148.553C218.757 147.589 215.668 146.31 213.188 144.716C210.75 143.165 208.942 141.361 207.765 139.306C206.588 137.252 206 135.113 206 132.89C206 129.997 206.841 127.585 208.522 125.656C210.203 123.727 212.557 122.176 215.583 121.002C213.986 120.037 212.725 118.8 211.801 117.29C210.876 115.781 210.413 113.831 210.413 111.44C210.413 110.476 210.582 109.469 210.918 108.421C211.254 107.331 211.779 106.282 212.494 105.276C213.251 104.227 214.175 103.242 215.268 102.319C216.361 101.397 217.664 100.579 219.177 99.8661C215.773 98.0629 213.083 95.6935 211.107 92.7581C209.131 89.7806 208.144 86.321 208.144 82.379C208.144 79.1081 208.837 76.1726 210.224 73.5726C211.611 70.9306 213.503 68.7081 215.899 66.9048C218.337 65.0597 221.195 63.6548 224.473 62.6903C227.752 61.6839 231.304 61.1806 235.129 61.1806C240.677 61.1806 245.595 62.229 249.882 64.3258H269.553Z" fill="black"/>
<path d="M301.569 61.3064C306.528 61.3064 311.047 62.0823 315.124 63.6339C319.201 65.1855 322.69 67.4081 325.59 70.3016C328.533 73.1952 330.802 76.7177 332.4 80.8693C334.039 84.979 334.858 89.6129 334.858 94.771C334.858 99.971 334.039 104.668 332.4 108.861C330.802 113.013 328.533 116.556 325.59 119.492C322.69 122.385 319.201 124.629 315.124 126.223C311.047 127.774 306.528 128.55 301.569 128.55C296.567 128.55 292.006 127.774 287.887 126.223C283.81 124.629 280.279 122.385 277.295 119.492C274.352 116.556 272.062 113.013 270.422 108.861C268.825 104.668 268.026 99.971 268.026 94.771C268.026 89.6129 268.825 84.979 270.422 80.8693C272.062 76.7177 274.352 73.1952 277.295 70.3016C280.279 67.4081 283.81 65.1855 287.887 63.6339C292.006 62.0823 296.567 61.3064 301.569 61.3064ZM301.569 114.082C306.066 114.082 309.366 112.51 311.467 109.365C313.611 106.177 314.683 101.355 314.683 94.8968C314.683 88.4387 313.611 83.6371 311.467 80.4919C309.366 77.3468 306.066 75.7742 301.569 75.7742C296.945 75.7742 293.561 77.3468 291.418 80.4919C289.274 83.6371 288.202 88.4387 288.202 94.8968C288.202 101.355 289.274 106.177 291.418 109.365C293.561 112.51 296.945 114.082 301.569 114.082Z" fill="black"/>
<path d="M391.069 52.7516H365.218V127.544H343.908V52.7516H318.058V35.8935H391.069V52.7516Z" fill="black"/>
<path d="M397.229 72.3774C399.246 68.8548 401.558 66.0871 404.164 64.0742C406.812 62.0613 409.838 61.0548 413.243 61.0548C416.185 61.0548 418.581 61.7468 420.431 63.1306L419.17 77.4726C418.96 78.3952 418.602 79.0242 418.098 79.3597C417.636 79.6952 416.984 79.8629 416.143 79.8629C415.807 79.8629 415.366 79.8419 414.819 79.8C414.273 79.7581 413.705 79.7161 413.117 79.6742C412.529 79.5903 411.919 79.5274 411.289 79.4855C410.7 79.4016 410.154 79.3597 409.649 79.3597C406.791 79.3597 404.5 80.1145 402.777 81.6242C401.096 83.1339 399.667 85.2306 398.49 87.9145V127.544H378.944V62.3129H390.545C391.512 62.3129 392.311 62.3968 392.941 62.5645C393.614 62.7323 394.16 63.0048 394.581 63.3823C395.043 63.7177 395.379 64.179 395.589 64.7661C395.842 65.3532 396.052 66.0661 396.22 66.9048L397.229 72.3774Z" fill="black"/>
<path d="M445.976 62.3129V127.544H426.431V62.3129H445.976ZM447.994 44.4484C447.994 46 447.679 47.4677 447.048 48.8516C446.418 50.1935 445.556 51.3887 444.463 52.4371C443.37 53.4435 442.088 54.2613 440.617 54.8903C439.188 55.4774 437.654 55.771 436.015 55.771C434.417 55.771 432.925 55.4774 431.538 54.8903C430.151 54.2613 428.911 53.4435 427.818 52.4371C426.767 51.3887 425.927 50.1935 425.296 48.8516C424.708 47.4677 424.414 46 424.414 44.4484C424.414 42.8548 424.708 41.3661 425.296 39.9823C425.927 38.5984 426.767 37.3823 427.818 36.3339C428.911 35.2855 430.151 34.4677 431.538 33.8806C432.925 33.2935 434.417 33 436.015 33C437.654 33 439.188 33.2935 440.617 33.8806C442.088 34.4677 443.37 35.2855 444.463 36.3339C445.556 37.3823 446.418 38.5984 447.048 39.9823C447.679 41.3661 447.994 42.8548 447.994 44.4484Z" fill="black"/>
<path d="M474.109 33.3774V86.1532H477.009C478.228 86.1532 479.153 85.9855 479.783 85.65C480.414 85.2726 481.044 84.6645 481.675 83.8258L494.033 65.4581C494.789 64.4097 495.651 63.6339 496.618 63.1306C497.584 62.5855 498.824 62.3129 500.337 62.3129H518.243L501.346 85.5242C499.749 87.621 497.858 89.3403 495.672 90.6823C496.639 91.3952 497.521 92.2339 498.32 93.1984C499.119 94.121 499.875 95.1693 500.59 96.3435L519 127.544H501.346C499.875 127.544 498.614 127.313 497.563 126.852C496.513 126.348 495.63 125.489 494.915 124.273L482.558 101.187C481.969 100.139 481.36 99.4677 480.729 99.1742C480.099 98.8387 479.153 98.671 477.892 98.671H474.109V127.544H454.564V33.3774H474.109Z" fill="black"/>
<path fill-rule="evenodd" clip-rule="evenodd" d="M180.041 80.5776H90.8896C86.4506 80.5776 82.8521 83.7163 82.8521 87.5882C82.8521 91.46 86.4506 94.5987 90.8896 94.5987H146.341C145.376 106.458 140.649 117.718 132.848 126.695C124.735 136.033 113.773 142.355 101.728 144.666C89.6845 146.977 77.2438 145.147 66.3933 139.472C55.5421 133.797 46.8962 124.597 41.8523 113.332C36.8078 102.066 35.6609 89.3895 38.6075 77.3363C41.5541 65.2831 48.4196 54.5668 58.0922 46.9003C67.7635 39.2348 79.6778 35.0637 91.9226 35.0371C95.9526 35.0284 99.2124 31.7544 99.2036 27.7245C99.1949 23.6946 95.9209 20.4347 91.891 20.4435C76.3463 20.4772 61.254 25.7725 49.0273 35.4634C36.8019 45.1533 28.1452 58.679 24.4313 73.8707C20.7175 89.0623 22.1575 105.057 28.5329 119.296C34.9089 133.536 45.8549 145.2 59.6298 152.404C73.4055 159.609 89.2 161.93 104.478 158.999C119.755 156.067 133.621 148.057 143.865 136.267C153.971 124.635 159.981 109.983 160.973 94.5987H180.292C177.505 141.467 138.614 178.615 91.0463 178.615C41.6689 178.615 1.64062 138.586 1.64062 89.2088C1.64062 40.7164 40.2469 1.24095 88.4006 -0.158501L88.3772 -0.196899H91.0463H144.423C164.321 -0.196899 180.452 15.9339 180.452 35.8323V79.8679H179.97C179.994 80.1042 180.018 80.3408 180.041 80.5776ZM103.84 64.1675L117.308 23.1816C118.465 25.1614 120.613 26.4914 123.072 26.4914L157.767 26.4914C161.452 26.4914 164.439 23.5042 164.439 19.8193C164.439 16.1344 161.452 13.1472 157.767 13.1472L123.072 13.1472C120.954 13.1472 119.067 14.134 117.844 15.6729L117.477 15.6718C114.758 15.6633 112.268 17.4796 111.407 20.0995L97.2234 63.2645C95.9738 67.0674 98.6214 70.8124 102.568 70.8247L166.13 71.0227C170.142 71.0352 173.699 66.9137 171.946 62.7809C170.064 58.3458 167.076 53.5753 163.175 49.8637C159.284 46.1626 154.235 43.2913 148.278 43.2727L119.144 43.1819C117.301 43.1762 115.718 44.6624 115.606 46.5015C115.495 48.3406 116.899 49.8361 118.741 49.8418L147.876 49.9326C151.628 49.9443 155.22 51.7628 158.417 54.8044C161.24 57.4901 163.562 60.956 165.178 64.3586L103.84 64.1675ZM128.637 33.1775C126.795 33.1717 125.211 34.6579 125.1 36.497C124.989 38.3361 126.392 39.8316 128.235 39.8374L145.403 39.8909C147.245 39.8966 148.829 38.4104 148.94 36.5713C149.052 34.7322 147.648 33.2367 145.806 33.231L128.637 33.1775Z" fill="black"/>
</g>
<defs>
<clipPath id="clip0_18_2479">
<rect width="519" height="179" fill="white"/>
</clipPath>
</defs>
</svg>
