<svg width="589" height="253" viewBox="0 0 589 253" fill="none" xmlns="http://www.w3.org/2000/svg">
<rect width="589" height="253" fill="white"/>
<path d="M262.129 128.5C265.365 128.5 267.698 127.703 269.127 126.11C270.598 124.474 271.334 122.377 271.334 119.819C271.334 117.177 270.598 115.102 269.127 113.592C267.698 112.082 265.365 111.327 262.129 111.327C258.892 111.327 256.538 112.082 255.067 113.592C253.638 115.102 252.923 117.177 252.923 119.819C252.923 121.077 253.092 122.231 253.428 123.279C253.806 124.327 254.374 125.25 255.13 126.047C255.887 126.802 256.833 127.41 257.967 127.871C259.144 128.29 260.531 128.5 262.129 128.5ZM277.26 166.934C277.26 165.382 276.567 164.271 275.18 163.6C273.793 162.887 271.985 162.384 269.758 162.09C267.53 161.797 265.029 161.629 262.255 161.587C259.523 161.503 256.79 161.335 254.058 161.084C252.839 161.923 251.831 162.866 251.032 163.915C250.275 164.921 249.897 166.074 249.897 167.374C249.897 168.297 250.086 169.135 250.465 169.89C250.885 170.645 251.599 171.295 252.608 171.84C253.617 172.385 254.962 172.805 256.643 173.098C258.367 173.434 260.531 173.602 263.137 173.602C265.954 173.602 268.265 173.434 270.073 173.098C271.88 172.763 273.309 172.302 274.36 171.715C275.453 171.127 276.21 170.415 276.63 169.576C277.05 168.779 277.26 167.898 277.26 166.934ZM296.553 101.326V108.434C296.553 109.524 296.238 110.384 295.608 111.013C295.019 111.642 293.989 112.124 292.518 112.46L287.79 113.529C288.042 114.452 288.231 115.395 288.357 116.36C288.525 117.324 288.609 118.331 288.609 119.379C288.609 122.65 287.916 125.585 286.529 128.185C285.184 130.785 283.313 133.008 280.917 134.853C278.563 136.656 275.768 138.061 272.532 139.068C269.295 140.032 265.828 140.515 262.129 140.515C261.12 140.515 260.132 140.494 259.165 140.452C258.199 140.368 257.253 140.242 256.328 140.074C254.899 140.955 254.184 141.94 254.184 143.031C254.184 144.121 254.773 144.918 255.95 145.421C257.127 145.882 258.682 146.218 260.615 146.427C262.549 146.595 264.735 146.721 267.173 146.805C269.653 146.847 272.174 146.994 274.738 147.245C277.302 147.455 279.803 147.832 282.241 148.377C284.721 148.923 286.928 149.803 288.861 151.019C290.795 152.235 292.35 153.871 293.527 155.926C294.704 157.939 295.292 160.518 295.292 163.663C295.292 166.598 294.578 169.471 293.149 172.281C291.72 175.09 289.618 177.585 286.844 179.766C284.07 181.947 280.665 183.687 276.63 184.987C272.595 186.329 267.971 187 262.759 187C257.631 187 253.197 186.518 249.456 185.553C245.757 184.589 242.668 183.31 240.188 181.716C237.75 180.165 235.942 178.361 234.765 176.306C233.588 174.252 233 172.113 233 169.89C233 166.997 233.841 164.585 235.522 162.656C237.203 160.727 239.557 159.176 242.583 158.002C240.986 157.037 239.725 155.8 238.801 154.29C237.876 152.781 237.413 150.831 237.413 148.44C237.413 147.476 237.582 146.469 237.918 145.421C238.254 144.331 238.779 143.282 239.494 142.276C240.251 141.227 241.175 140.242 242.268 139.319C243.361 138.397 244.664 137.579 246.177 136.866C242.773 135.063 240.083 132.694 238.107 129.758C236.131 126.781 235.144 123.321 235.144 119.379C235.144 116.108 235.837 113.173 237.224 110.573C238.611 107.931 240.503 105.708 242.899 103.905C245.337 102.06 248.195 100.655 251.473 99.6903C254.752 98.6839 258.304 98.1806 262.129 98.1806C267.677 98.1806 272.595 99.229 276.882 101.326H296.553Z" fill="black"/>
<path d="M328.569 98.3064C333.528 98.3064 338.047 99.0823 342.124 100.634C346.201 102.185 349.69 104.408 352.59 107.302C355.533 110.195 357.802 113.718 359.4 117.869C361.039 121.979 361.858 126.613 361.858 131.771C361.858 136.971 361.039 141.668 359.4 145.861C357.802 150.013 355.533 153.556 352.59 156.492C349.69 159.385 346.201 161.629 342.124 163.223C338.047 164.774 333.528 165.55 328.569 165.55C323.567 165.55 319.006 164.774 314.887 163.223C310.81 161.629 307.279 159.385 304.295 156.492C301.352 153.556 299.062 150.013 297.422 145.861C295.825 141.668 295.026 136.971 295.026 131.771C295.026 126.613 295.825 121.979 297.422 117.869C299.062 113.718 301.352 110.195 304.295 107.302C307.279 104.408 310.81 102.185 314.887 100.634C319.006 99.0823 323.567 98.3064 328.569 98.3064ZM328.569 151.082C333.066 151.082 336.366 149.51 338.467 146.365C340.611 143.177 341.683 138.355 341.683 131.897C341.683 125.439 340.611 120.637 338.467 117.492C336.366 114.347 333.066 112.774 328.569 112.774C323.945 112.774 320.561 114.347 318.418 117.492C316.274 120.637 315.202 125.439 315.202 131.897C315.202 138.355 316.274 143.177 318.418 146.365C320.561 149.51 323.945 151.082 328.569 151.082Z" fill="black"/>
<path d="M418.069 89.7516H392.218V164.544H370.908V89.7516H345.058V72.8935H418.069V89.7516Z" fill="black"/>
<path d="M424.229 109.377C426.246 105.855 428.558 103.087 431.164 101.074C433.812 99.0613 436.838 98.0548 440.243 98.0548C443.185 98.0548 445.581 98.7468 447.431 100.131L446.17 114.473C445.96 115.395 445.602 116.024 445.098 116.36C444.636 116.695 443.984 116.863 443.143 116.863C442.807 116.863 442.366 116.842 441.819 116.8C441.273 116.758 440.705 116.716 440.117 116.674C439.529 116.59 438.919 116.527 438.289 116.485C437.7 116.402 437.154 116.36 436.649 116.36C433.791 116.36 431.5 117.115 429.777 118.624C428.096 120.134 426.667 122.231 425.49 124.915V164.544H405.944V99.3129H417.545C418.512 99.3129 419.311 99.3968 419.941 99.5645C420.614 99.7323 421.16 100.005 421.581 100.382C422.043 100.718 422.379 101.179 422.589 101.766C422.842 102.353 423.052 103.066 423.22 103.905L424.229 109.377Z" fill="black"/>
<path d="M472.976 99.3129V164.544H453.431V99.3129H472.976ZM474.994 81.4484C474.994 83 474.679 84.4677 474.048 85.8516C473.418 87.1935 472.556 88.3887 471.463 89.4371C470.37 90.4435 469.088 91.2613 467.617 91.8903C466.188 92.4774 464.654 92.771 463.015 92.771C461.417 92.771 459.925 92.4774 458.538 91.8903C457.151 91.2613 455.911 90.4435 454.818 89.4371C453.767 88.3887 452.927 87.1935 452.296 85.8516C451.708 84.4677 451.414 83 451.414 81.4484C451.414 79.8548 451.708 78.3661 452.296 76.9823C452.927 75.5984 453.767 74.3823 454.818 73.3339C455.911 72.2855 457.151 71.4677 458.538 70.8806C459.925 70.2935 461.417 70 463.015 70C464.654 70 466.188 70.2935 467.617 70.8806C469.088 71.4677 470.37 72.2855 471.463 73.3339C472.556 74.3823 473.418 75.5984 474.048 76.9823C474.679 78.3661 474.994 79.8548 474.994 81.4484Z" fill="black"/>
<path d="M501.109 70.3774V123.153H504.009C505.228 123.153 506.153 122.985 506.783 122.65C507.414 122.273 508.044 121.665 508.675 120.826L521.033 102.458C521.789 101.41 522.651 100.634 523.618 100.131C524.584 99.5855 525.824 99.3129 527.337 99.3129H545.243L528.346 122.524C526.749 124.621 524.858 126.34 522.672 127.682C523.639 128.395 524.521 129.234 525.32 130.198C526.119 131.121 526.875 132.169 527.59 133.344L546 164.544H528.346C526.875 164.544 525.614 164.313 524.563 163.852C523.513 163.348 522.63 162.489 521.915 161.273L509.558 138.187C508.969 137.139 508.36 136.468 507.729 136.174C507.099 135.839 506.153 135.671 504.892 135.671H501.109V164.544H481.564V70.3774H501.109Z" fill="black"/>
<path fill-rule="evenodd" clip-rule="evenodd" d="M207.041 117.578H117.89C113.451 117.578 109.852 120.716 109.852 124.588C109.852 128.46 113.451 131.599 117.89 131.599H173.341C172.376 143.458 167.649 154.718 159.848 163.695C151.735 173.033 140.773 179.355 128.728 181.666C116.685 183.977 104.244 182.147 93.3933 176.472C82.5421 170.797 73.8962 161.597 68.8523 150.332C63.8078 139.066 62.6609 126.389 65.6075 114.336C68.5541 102.283 75.4196 91.5668 85.0922 83.9003C94.7635 76.2348 106.678 72.0637 118.923 72.0371C122.953 72.0284 126.212 68.7544 126.204 64.7245C126.195 60.6946 122.921 57.4347 118.891 57.4435C103.346 57.4772 88.254 62.7725 76.0273 72.4634C63.8019 82.1533 55.1452 95.679 51.4313 110.871C47.7175 126.062 49.1575 142.057 55.5329 156.296C61.9089 170.536 72.8549 182.2 86.6298 189.404C100.405 196.609 116.2 198.93 131.478 195.999C146.755 193.067 160.621 185.057 170.865 173.267C180.971 161.635 186.981 146.983 187.973 131.599H207.292C204.505 178.467 165.614 215.614 118.046 215.614C68.6689 215.614 28.6406 175.586 28.6406 126.209C28.6406 77.7164 67.2469 38.241 115.401 36.8415L115.377 36.8031H118.046H171.423C191.321 36.8031 207.452 52.9339 207.452 72.8323V116.868H206.97C206.994 117.104 207.018 117.341 207.041 117.578ZM130.84 101.167L144.308 60.1816C145.465 62.1614 147.613 63.4914 150.072 63.4914L184.767 63.4914C188.452 63.4914 191.439 60.5042 191.439 56.8193C191.439 53.1344 188.452 50.1472 184.767 50.1472L150.072 50.1472C147.954 50.1472 146.067 51.134 144.844 52.6729L144.477 52.6718C141.758 52.6633 139.268 54.4796 138.407 57.0995L124.223 100.264C122.974 104.067 125.621 107.812 129.568 107.825L193.13 108.023C197.142 108.035 200.699 103.914 198.946 99.7809C197.064 95.3458 194.076 90.5753 190.175 86.8637C186.284 83.1626 181.235 80.2913 175.278 80.2727L146.144 80.1819C144.301 80.1762 142.718 81.6624 142.606 83.5015C142.495 85.3406 143.899 86.8361 145.741 86.8418L174.876 86.9326C178.628 86.9443 182.22 88.7628 185.417 91.8044C188.24 94.4901 190.562 97.956 192.178 101.359L130.84 101.167ZM155.637 70.1775C153.795 70.1717 152.211 71.6579 152.1 73.497C151.989 75.3361 153.392 76.8316 155.235 76.8374L172.403 76.8909C174.245 76.8966 175.829 75.4104 175.94 73.5713C176.052 71.7322 174.648 70.2367 172.806 70.231L155.637 70.1775Z" fill="black"/>
</svg>
